<?xml version="1.0" standalone="no"?>
<!DOCTYPE svg PUBLIC "-//W3C//DTD SVG 20010904//EN"
 "http://www.w3.org/TR/2001/REC-SVG-20010904/DTD/svg10.dtd">
<svg version="1.0" xmlns="http://www.w3.org/2000/svg"
 width="952.000000pt" height="952.000000pt" viewBox="0 0 952.000000 952.000000"
 preserveAspectRatio="xMidYMid meet">
<metadata>
Created by potrace 1.14, written by Peter Selinger 2001-2017
</metadata>
<g transform="translate(0.000000,952.000000) scale(0.100000,-0.100000)"
fill="#000000" stroke="none">
<path d="M4845 9502 c3 -3 -6 -20 -20 -37 -13 -18 -21 -35 -18 -39 4 -3 1 -6
-6 -6 -7 0 -9 -4 -6 -10 3 -5 2 -10 -2 -10 -5 0 -24 -29 -43 -65 -19 -36 -39
-65 -44 -65 -5 0 -6 -3 -3 -6 4 -4 -2 -19 -13 -34 -11 -16 -20 -33 -20 -39 0
-6 -4 -11 -9 -11 -8 0 -19 -28 -19 -47 0 -3 -7 -10 -16 -15 -9 -5 -14 -13 -11
-19 4 -5 2 -9 -4 -9 -5 0 -13 -9 -16 -21 -4 -12 -17 -36 -29 -54 -25 -39 -51
-86 -55 -100 -1 -5 -8 -17 -15 -25 -12 -14 -30 -45 -84 -141 -43 -76 -47 -84
-59 -99 -6 -8 -13 -22 -15 -30 -2 -8 -10 -22 -18 -30 -8 -8 -16 -22 -18 -30
-2 -8 -15 -30 -30 -49 -14 -19 -19 -31 -11 -27 8 4 6 1 -3 -7 -10 -8 -18 -19
-18 -25 0 -7 -8 -21 -17 -32 -10 -11 -18 -24 -18 -28 -1 -4 -13 -26 -28 -49
-15 -24 -27 -45 -27 -47 0 -3 -31 -57 -69 -120 -38 -63 -66 -117 -63 -120 3
-4 1 -6 -5 -6 -6 0 -21 -22 -34 -50 -13 -27 -27 -50 -31 -50 -5 0 -8 -7 -8
-15 0 -8 -5 -15 -11 -15 -5 0 -8 -4 -4 -9 3 -5 -1 -16 -9 -24 -8 -8 -12 -17
-9 -21 4 -3 1 -6 -5 -6 -10 0 -31 -45 -21 -45 2 0 -3 -8 -11 -17 -8 -9 -17
-14 -20 -13 -3 2 -7 -6 -7 -18 -1 -11 -9 -25 -18 -29 -8 -5 -15 -17 -15 -27 0
-10 -7 -24 -15 -31 -8 -7 -13 -16 -10 -20 3 -4 -2 -11 -11 -14 -8 -3 -12 -10
-9 -16 3 -5 2 -10 -3 -10 -6 0 -13 -11 -16 -25 -4 -14 -11 -25 -17 -25 -6 0
-7 -4 -4 -10 3 -5 1 -10 -4 -10 -6 0 -11 -7 -11 -15 0 -8 -5 -15 -11 -15 -5 0
-8 -4 -5 -9 3 -5 -1 -14 -9 -21 -8 -7 -15 -16 -15 -21 0 -5 -11 -26 -24 -47
-12 -20 -23 -41 -24 -46 0 -5 -4 -12 -9 -15 -5 -3 -14 -17 -21 -31 -18 -35
-39 -71 -100 -173 -28 -49 -52 -92 -52 -97 0 -4 -7 -13 -15 -20 -8 -7 -12 -16
-9 -21 3 -5 0 -9 -5 -9 -6 0 -11 -7 -11 -15 0 -9 -6 -18 -14 -21 -13 -5 -26
-35 -25 -58 1 -5 -6 -13 -15 -18 -9 -5 -16 -14 -16 -19 0 -6 -9 -22 -20 -36
-11 -14 -17 -29 -14 -34 3 -5 0 -9 -5 -9 -6 0 -11 -7 -11 -15 0 -8 -4 -15 -9
-15 -5 0 -11 -8 -15 -17 -3 -10 -15 -33 -26 -50 -11 -18 -16 -33 -12 -33 4 0
2 -4 -4 -8 -14 -10 -59 -85 -56 -94 1 -5 -3 -8 -9 -8 -5 0 -8 -4 -5 -9 3 -5
-1 -11 -9 -15 -8 -3 -15 -14 -15 -25 0 -10 -7 -22 -16 -25 -8 -3 -13 -10 -9
-15 3 -6 -3 -14 -12 -20 -10 -6 -15 -11 -10 -11 4 0 -4 -18 -17 -39 -14 -21
-22 -42 -19 -45 4 -3 2 -6 -4 -6 -5 0 -19 -20 -31 -44 -12 -24 -29 -49 -37
-56 -8 -7 -12 -16 -9 -21 3 -5 0 -9 -6 -9 -6 0 -8 -4 -5 -10 3 -5 1 -10 -5
-10 -6 0 -8 -4 -5 -10 3 -5 1 -10 -5 -10 -6 0 -9 -4 -6 -9 4 -5 3 -11 -2 -13
-8 -3 -67 -101 -64 -106 2 -1 -4 -10 -13 -18 -8 -9 -13 -20 -10 -25 4 -5 1 -9
-5 -9 -6 0 -16 -13 -21 -30 -6 -16 -15 -30 -21 -30 -5 0 -6 -4 -3 -10 3 -5 1
-10 -5 -10 -6 0 -9 -4 -6 -9 3 -5 -1 -12 -10 -15 -8 -3 -12 -10 -9 -16 3 -5 2
-10 -3 -10 -5 0 -12 -8 -15 -17 -8 -23 -50 -98 -67 -118 -7 -8 -9 -15 -4 -15
5 0 4 -4 -2 -8 -14 -9 -49 -74 -46 -84 1 -5 -2 -8 -7 -8 -5 0 -22 -25 -38 -56
-32 -64 -65 -103 -71 -86 -2 7 -7 10 -12 7 -16 -10 -70 -12 -70 -3 0 5 -4 7
-9 3 -16 -9 -71 -13 -71 -4 0 5 -12 4 -26 -1 -16 -7 -23 -7 -19 0 4 7 -2 7
-19 0 -14 -5 -28 -5 -31 -1 -3 5 -20 6 -38 2 -18 -5 -41 -6 -52 -4 -19 4 -50
4 -107 -1 -16 -1 -28 2 -28 7 0 4 -4 6 -9 2 -16 -9 -71 -13 -71 -4 0 5 -12 4
-26 -1 -16 -7 -23 -7 -19 0 4 6 -2 7 -17 1 -30 -11 -32 -11 -68 -1 -18 5 -30
5 -30 0 0 -6 -9 -6 -22 -1 -13 5 -33 5 -45 0 -13 -5 -25 -4 -28 1 -3 5 -12 7
-19 4 -26 -10 -126 -10 -126 0 0 6 -5 5 -11 -1 -6 -6 -18 -9 -25 -6 -8 3 -14
-1 -14 -11 0 -9 -4 -16 -10 -16 -5 0 -10 -5 -10 -11 0 -6 -13 -31 -30 -56 -16
-24 -30 -48 -30 -53 0 -5 -6 -15 -12 -22 -7 -7 -20 -26 -28 -43 -8 -16 -22
-38 -30 -48 -8 -10 -14 -21 -13 -25 1 -4 -4 -14 -11 -22 -7 -8 -46 -71 -86
-140 -41 -69 -77 -127 -82 -128 -4 -2 -6 -7 -3 -12 2 -4 -6 -19 -19 -33 -13
-14 -21 -28 -18 -31 3 -3 -3 -15 -12 -25 -11 -12 -15 -24 -9 -33 9 -15 53 -20
53 -6 0 5 5 6 11 2 20 -12 100 -13 92 -1 -4 6 -1 7 8 1 18 -11 129 -12 129 -1
0 4 5 5 11 1 20 -12 100 -13 92 -1 -4 6 -1 7 7 2 20 -12 79 -15 86 -4 3 5 10
6 17 2 16 -10 347 -10 347 0 0 5 5 5 11 1 21 -13 100 -13 92 -1 -4 7 0 7 9 -1
12 -10 18 -10 23 -1 6 8 10 8 16 -2 8 -13 -18 -66 -74 -156 -15 -24 -24 -43
-20 -43 5 0 3 -4 -3 -8 -15 -10 -57 -82 -48 -82 4 0 0 -6 -9 -12 -9 -7 -17
-20 -19 -28 -2 -8 -9 -21 -16 -28 -7 -8 -9 -18 -6 -24 4 -6 2 -8 -3 -5 -6 4
-16 -7 -23 -23 -7 -17 -16 -30 -20 -30 -3 0 -7 -6 -7 -13 0 -7 -16 -38 -36
-69 -19 -31 -33 -59 -30 -62 4 -3 1 -6 -5 -6 -7 0 -12 -7 -12 -16 0 -9 -5 -12
-13 -8 -6 4 -9 4 -5 -1 7 -8 -11 -46 -57 -120 -14 -22 -29 -50 -35 -62 -5 -11
-14 -24 -20 -28 -5 -3 -8 -11 -5 -16 4 -5 2 -9 -3 -9 -9 0 -47 -70 -44 -82 1
-5 -2 -8 -7 -8 -5 0 -14 -13 -21 -30 -7 -17 -17 -27 -24 -23 -6 3 -8 3 -4 -2
8 -9 -42 -105 -55 -105 -5 0 -6 -4 -2 -9 3 -5 0 -15 -7 -23 -7 -7 -20 -26 -28
-43 -8 -16 -17 -32 -20 -35 -3 -3 -16 -25 -29 -50 -13 -25 -31 -53 -39 -63 -8
-9 -13 -20 -9 -23 5 -5 -10 -27 -41 -60 -7 -8 -10 -14 -6 -14 5 0 3 -5 -4 -12
-7 -7 -12 -16 -12 -20 0 -4 1613 -8 3584 -8 3576 0 3584 0 3579 20 -3 11 -9
20 -14 20 -5 0 -9 7 -9 15 0 8 -5 15 -11 15 -5 0 -7 5 -4 10 3 6 2 10 -3 10
-5 0 -12 8 -15 18 -3 9 -20 40 -36 67 -17 28 -36 61 -41 75 -6 13 -14 27 -18
30 -8 5 -31 45 -58 100 -10 19 -21 37 -24 40 -4 3 -17 25 -30 50 -14 25 -31
53 -39 63 -8 9 -10 17 -5 17 5 0 4 4 -2 8 -5 4 -23 30 -38 57 -107 191 -112
198 -135 200 -12 1 -21 -2 -21 -7 0 -5 -6 -6 -12 -2 -17 11 -527 12 -556 2
-13 -5 -21 -4 -18 1 7 11 -55 8 -74 -4 -8 -5 -11 -4 -7 2 8 13 -52 11 -73 -2
-8 -5 -11 -4 -7 2 8 13 -52 11 -73 -2 -7 -5 -11 -4 -7 1 7 11 -694 11 -712 -1
-9 -5 -12 -4 -8 2 8 13 -52 11 -73 -2 -8 -5 -11 -4 -7 2 8 13 -52 11 -73 -2
-8 -5 -11 -4 -7 2 8 13 -52 11 -73 -2 -7 -5 -11 -4 -7 1 7 11 -694 11 -712 -1
-9 -5 -12 -4 -8 2 8 13 -52 11 -73 -2 -8 -5 -11 -4 -7 2 8 13 -52 11 -73 -2
-8 -5 -11 -4 -7 2 8 13 -52 11 -73 -2 -8 -5 -11 -4 -7 2 8 13 -52 11 -73 -2
-8 -5 -11 -4 -7 2 8 13 -52 11 -73 -2 -8 -5 -11 -4 -7 2 8 13 -52 11 -73 -2
-8 -5 -11 -4 -7 2 8 13 -52 11 -73 -2 -7 -5 -11 -4 -7 1 7 11 -694 11 -712 -1
-9 -5 -12 -4 -8 2 8 13 -52 11 -73 -2 -8 -5 -11 -4 -7 2 8 13 -52 11 -73 -2
-8 -5 -11 -4 -7 2 8 13 -52 11 -73 -2 -7 -5 -11 -4 -7 1 7 11 -694 11 -712 -1
-9 -5 -12 -4 -8 2 8 13 -52 11 -73 -2 -8 -5 -11 -4 -7 2 8 13 -52 11 -73 -2
-8 -5 -11 -4 -7 2 8 13 -52 11 -73 -2 -8 -5 -11 -4 -7 2 4 6 -22 9 -73 7 -57
-2 -79 1 -77 9 1 7 4 14 7 17 4 4 24 39 54 95 6 11 13 22 16 25 3 3 12 19 20
35 8 17 17 32 21 35 3 3 13 21 23 40 27 55 50 93 64 108 11 13 16 28 13 45 0
4 3 7 8 7 8 0 85 129 103 173 18 43 41 54 111 53 37 -1 67 2 67 7 0 4 5 5 11
1 20 -12 100 -13 92 -1 -4 6 -1 7 7 2 20 -12 79 -15 86 -4 3 5 10 6 17 2 16
-10 347 -10 347 0 0 5 5 5 11 1 20 -12 100 -13 92 -1 -4 6 -1 7 8 2 20 -13 89
-13 89 -1 0 7 3 8 8 1 9 -12 112 -14 112 -2 0 4 5 5 11 1 20 -12 100 -13 92
-1 -4 6 -1 7 8 1 18 -11 129 -12 129 -1 0 4 5 5 12 1 18 -11 417 -11 411 0 -4
5 0 6 8 0 18 -11 129 -12 129 -1 0 4 5 5 11 1 20 -12 100 -13 92 -1 -4 6 -1 7
8 1 18 -11 129 -12 129 -1 0 4 5 5 11 1 20 -12 100 -13 92 -1 -4 6 -1 7 7 2
20 -12 79 -15 86 -4 3 5 10 6 17 2 16 -10 347 -10 347 0 0 5 5 5 11 1 20 -12
100 -13 92 -1 -4 6 -1 7 8 2 20 -13 89 -13 89 -1 0 7 3 8 8 1 9 -12 112 -14
112 -2 0 4 5 5 11 1 20 -12 100 -13 92 -1 -4 6 -1 7 8 1 18 -11 129 -12 129
-1 0 4 5 5 12 1 18 -11 417 -11 411 0 -4 5 0 6 8 0 18 -11 129 -12 129 -1 0 4
5 5 11 1 20 -12 100 -13 92 -1 -4 6 -1 7 8 1 18 -11 129 -12 129 -1 0 4 5 5
11 1 20 -12 100 -13 92 -1 -4 6 -1 7 7 2 20 -12 79 -15 86 -4 3 5 10 6 16 3 7
-4 62 -8 125 -8 102 -1 113 0 113 16 0 10 -4 18 -10 18 -5 0 -10 9 -10 20 0
11 -4 20 -8 20 -4 0 -19 22 -33 50 -13 27 -27 50 -31 50 -5 0 -8 9 -8 20 0 11
-4 20 -9 20 -5 0 -17 18 -27 40 -10 22 -22 40 -27 40 -4 0 -5 5 -2 10 3 6 3
10 -2 10 -4 0 -13 10 -19 23 -19 39 -76 141 -94 167 -9 14 -23 39 -31 57 -7
17 -17 29 -21 27 -4 -3 -8 4 -8 15 0 10 -4 21 -9 23 -5 2 -11 10 -13 18 -2 8
-6 17 -9 20 -6 5 -55 91 -73 127 -6 13 -15 23 -19 23 -5 0 -6 4 -3 8 3 5 -4
19 -15 31 -11 12 -21 30 -22 41 -1 10 -5 16 -9 14 -4 -3 -8 2 -8 10 0 9 -5 16
-12 16 -6 0 -9 3 -6 6 4 3 -5 22 -18 41 -13 20 -24 42 -24 49 0 8 -4 14 -10
14 -5 0 -10 7 -10 15 0 8 -5 15 -11 15 -5 0 -7 5 -4 10 3 6 3 10 -2 10 -4 0
-21 26 -38 58 -16 31 -32 59 -35 62 -3 3 -16 25 -29 50 -14 25 -27 47 -30 50
-3 3 -21 34 -40 70 -19 36 -37 67 -40 70 -3 3 -19 31 -36 62 -16 32 -33 58
-37 58 -5 0 -7 3 -6 8 1 4 -14 35 -35 70 -20 35 -37 67 -37 73 0 5 -5 9 -11 9
-5 0 -7 5 -4 10 3 6 2 10 -2 10 -5 0 -22 26 -38 57 -17 31 -38 66 -47 77 -10
11 -18 28 -18 38 0 10 -4 18 -10 18 -5 0 -10 7 -10 15 0 8 -4 15 -10 15 -5 0
-10 9 -10 20 0 11 -3 20 -8 20 -4 0 -18 21 -32 48 -13 26 -27 49 -30 52 -3 3
-14 23 -26 45 -29 56 -48 89 -55 95 -3 3 -20 32 -38 65 -18 33 -43 77 -54 98
-11 20 -25 37 -29 37 -5 0 -7 4 -4 9 3 5 -2 19 -12 32 -11 13 -29 45 -42 72
-13 26 -28 47 -32 47 -5 0 -6 5 -3 10 3 6 1 10 -5 10 -6 0 -8 5 -5 10 3 6 2
10 -4 10 -6 0 -13 11 -17 25 -3 14 -10 25 -15 25 -5 0 -9 5 -9 10 0 6 -12 29
-27 53 -14 23 -26 47 -26 54 0 7 -6 14 -14 17 -7 3 -13 12 -13 21 0 8 -5 15
-11 15 -5 0 -8 4 -4 9 3 5 1 12 -4 16 -5 3 -16 18 -24 33 -42 80 -62 112 -70
112 -5 0 -7 7 -3 15 3 8 1 15 -4 15 -5 0 -17 17 -27 38 -9 20 -19 39 -23 42
-3 3 -14 22 -25 43 -11 20 -23 37 -27 37 -4 0 -4 7 -1 17 4 11 3 14 -5 9 -7
-4 -12 -2 -12 5 0 6 -10 28 -22 48 -13 20 -23 38 -24 41 0 3 -11 23 -25 45
-13 22 -23 43 -21 48 1 4 -1 7 -6 7 -4 0 -16 17 -27 38 -11 20 -22 39 -25 42
-3 3 -16 26 -29 53 -13 26 -29 47 -34 47 -6 0 -8 3 -4 6 3 4 -6 23 -21 42 -15
20 -20 33 -12 28 9 -4 8 -2 -2 7 -10 8 -15 17 -11 20 3 4 2 7 -4 7 -6 0 -16
15 -24 33 -7 17 -16 34 -20 37 -3 3 -17 25 -29 50 -12 25 -25 47 -29 50 -3 3
-11 14 -17 25 -46 86 -60 111 -64 115 -3 3 -16 25 -29 50 -13 25 -31 53 -39
63 -8 9 -12 17 -8 17 4 0 -6 19 -21 43 -16 23 -35 56 -43 72 -8 17 -17 32 -21
35 -3 3 -23 37 -44 75 -22 39 -45 79 -52 90 -7 11 -16 28 -19 38 -3 9 -10 17
-15 17 -5 0 -8 3 -7 8 1 4 -10 26 -25 49 -15 24 -27 47 -27 51 0 5 -9 21 -20
34 -10 14 -16 28 -13 32 3 3 1 6 -6 6 -7 0 -10 4 -7 8 3 5 -1 9 -9 9 -8 0 -13
-3 -10 -5z m36 -1818 c10 -16 30 -51 44 -78 45 -83 50 -91 56 -96 4 -3 17 -25
29 -50 12 -25 26 -47 30 -50 3 -3 13 -20 21 -37 8 -18 17 -33 21 -33 5 0 8 -9
8 -20 0 -10 6 -23 13 -27 6 -4 25 -34 42 -65 16 -32 33 -58 37 -58 4 0 8 -9 8
-20 0 -11 5 -20 10 -20 6 0 10 -7 10 -15 0 -8 5 -15 10 -15 6 0 10 -9 10 -20
0 -11 3 -20 8 -20 4 0 18 -21 31 -47 14 -27 31 -56 39 -65 9 -10 12 -18 8 -18
-4 0 0 -7 8 -16 9 -8 16 -22 16 -30 0 -8 4 -14 9 -14 5 0 16 -17 25 -37 16
-37 36 -73 46 -83 3 -3 16 -25 29 -50 14 -25 27 -47 30 -50 4 -3 17 -27 31
-55 14 -27 31 -56 38 -63 6 -8 10 -18 7 -23 -4 -5 -2 -9 3 -9 6 0 25 -28 42
-62 18 -35 36 -65 40 -68 7 -5 17 -29 18 -43 0 -5 10 -17 22 -27 12 -10 22
-22 22 -27 1 -16 12 -38 25 -51 7 -7 13 -19 13 -26 0 -8 7 -19 15 -26 8 -7 12
-16 10 -21 -3 -4 2 -12 11 -17 9 -5 16 -13 17 -18 0 -5 10 -25 21 -44 12 -19
20 -38 18 -42 -1 -5 2 -8 8 -8 5 0 10 -7 10 -15 0 -8 5 -15 10 -15 6 0 10 -9
10 -20 0 -11 4 -20 8 -20 4 0 19 -22 33 -50 13 -27 27 -50 32 -50 4 0 7 -4 7
-9 0 -6 17 -38 37 -73 21 -35 36 -66 35 -70 -1 -5 2 -8 7 -8 5 0 14 -13 21
-30 7 -16 17 -30 22 -30 5 0 7 -4 4 -9 -3 -5 4 -20 15 -35 11 -14 17 -26 13
-26 -4 0 3 -9 16 -20 13 -11 19 -20 14 -20 -5 0 -2 -5 6 -11 11 -8 12 -12 2
-16 -6 -2 -10 -8 -7 -12 2 -5 -8 -6 -23 -4 -15 2 -40 4 -57 2 -16 -1 -41 -1
-55 0 -31 1 -77 0 -112 -3 -16 -1 -28 2 -28 7 0 4 -4 6 -9 2 -16 -9 -71 -13
-71 -4 0 5 -12 4 -26 -1 -16 -7 -23 -7 -19 0 4 6 -4 6 -22 -1 -15 -6 -29 -10
-30 -9 -16 9 -63 17 -63 10 0 -6 -10 -6 -22 -1 -13 5 -33 5 -45 0 -13 -5 -25
-4 -28 1 -3 5 -12 7 -19 4 -23 -9 -126 -10 -126 -1 0 4 -4 6 -9 2 -17 -10 -71
-13 -71 -3 0 5 -4 7 -9 3 -16 -9 -71 -13 -71 -4 0 5 -12 4 -26 -1 -16 -7 -23
-7 -19 0 4 7 -2 7 -19 0 -14 -5 -28 -5 -31 -1 -3 5 -20 6 -38 2 -18 -5 -41 -6
-52 -4 -19 4 -50 4 -107 -1 -16 -1 -28 2 -28 7 0 4 -4 6 -9 2 -16 -9 -71 -13
-71 -4 0 5 -12 4 -26 -1 -16 -7 -23 -7 -19 0 4 6 -4 6 -22 -1 -15 -6 -29 -10
-30 -9 -17 9 -63 17 -63 10 0 -6 -9 -6 -22 -1 -13 5 -33 5 -45 0 -13 -5 -25
-4 -28 1 -3 5 -12 7 -19 4 -23 -9 -126 -10 -126 -1 0 4 -4 6 -9 2 -17 -10 -71
-13 -71 -3 0 5 -4 7 -9 3 -16 -9 -71 -13 -71 -4 0 5 -12 4 -26 -1 -16 -7 -23
-7 -19 0 4 7 -2 7 -19 0 -14 -5 -28 -5 -31 -1 -3 5 -20 6 -38 2 -18 -5 -41 -6
-52 -4 -19 4 -50 4 -107 -1 -16 -1 -28 2 -28 7 0 4 -4 6 -9 2 -17 -10 -71 -13
-71 -3 0 5 -4 7 -9 3 -16 -9 -71 -13 -71 -4 0 5 -12 4 -26 -1 -16 -7 -23 -7
-19 0 4 7 -2 7 -19 0 -15 -5 -28 -6 -31 0 -3 5 -11 7 -18 4 -7 -2 -33 -6 -59
-8 -48 -3 -55 6 -29 38 7 9 10 16 6 16 -5 0 -2 8 6 18 14 17 19 25 61 101 11
20 25 42 30 49 6 6 7 12 2 12 -5 0 -4 4 2 8 6 4 26 34 45 67 18 33 38 63 43
67 6 4 8 8 4 8 -4 0 7 24 25 53 19 28 37 59 41 67 12 26 31 57 45 74 7 9 10
16 6 16 -3 0 3 12 14 26 12 15 21 32 21 39 0 7 7 16 16 19 9 4 14 9 11 13 -4
3 3 19 14 34 11 16 17 29 14 29 -4 0 1 7 9 16 9 8 16 22 16 30 0 8 4 14 8 14
4 0 21 25 37 56 41 76 49 89 64 108 7 9 10 16 5 16 -5 0 -4 4 3 8 6 4 13 14
15 22 2 8 11 23 21 34 9 11 17 26 17 33 0 7 5 13 11 13 5 0 7 5 4 10 -3 6 -3
10 2 10 4 0 13 10 19 23 22 45 67 123 81 139 8 9 12 22 8 27 -3 6 -2 11 3 11
4 0 19 19 32 43 13 23 28 45 34 49 6 4 7 8 3 8 -4 0 6 20 23 45 17 25 28 45
25 45 -3 0 6 16 21 35 14 19 23 35 19 35 -3 0 3 12 14 26 11 15 18 31 14 37
-3 6 -1 7 5 3 7 -4 14 3 18 19 3 14 10 25 15 25 5 0 9 9 9 21 0 11 5 17 10 14
6 -3 10 3 10 14 0 11 5 23 10 26 11 7 48 75 48 89 0 5 7 13 16 18 9 5 14 13
11 19 -4 5 -1 9 4 9 6 0 11 4 11 10 0 5 24 49 53 97 28 48 63 109 77 136 14
26 28 47 32 47 5 0 8 8 8 18 0 42 26 40 51 -4z"/>
<path d="M6978 2675 c-1 -1 -26 -5 -54 -9 -28 -3 -71 -15 -95 -25 -49 -22
-133 -94 -122 -104 3 -4 1 -7 -6 -7 -11 0 -32 -44 -30 -64 0 -5 -4 -12 -10
-16 -7 -3 -13 -22 -15 -42 -2 -19 -6 -40 -10 -47 -11 -17 -5 -204 7 -218 5 -7
7 -13 3 -13 -3 0 -1 -12 5 -27 6 -16 13 -37 15 -47 2 -11 7 -22 11 -25 5 -3
21 -25 37 -48 16 -24 33 -43 39 -43 5 0 16 -8 23 -17 7 -10 16 -18 21 -18 4
-1 18 -6 31 -13 12 -7 22 -9 22 -5 0 4 4 2 9 -5 4 -7 30 -14 59 -15 29 -1 52
-6 52 -10 0 -5 4 -6 9 -3 4 3 33 8 62 12 30 4 66 12 80 20 15 7 29 10 33 7 3
-4 6 1 6 11 0 9 4 15 8 12 10 -6 58 37 93 84 75 101 95 312 42 450 -3 8 -7 21
-9 28 -1 8 -10 22 -18 31 -9 10 -16 23 -16 29 0 7 -5 12 -11 12 -5 0 -7 5 -4
10 3 6 1 10 -4 10 -6 0 -21 11 -33 25 -11 13 -25 22 -30 19 -4 -3 -8 -2 -8 3
0 15 -64 39 -130 49 -19 3 -40 7 -47 9 -6 2 -13 2 -15 0z m105 -75 c26 -8 47
-18 47 -22 0 -4 6 -8 13 -8 7 0 23 -14 37 -31 14 -17 31 -37 38 -44 6 -8 12
-20 12 -29 0 -8 6 -21 13 -28 7 -7 13 -24 15 -38 14 -144 16 -190 11 -190 -3
0 -6 -12 -7 -27 -3 -59 -27 -133 -44 -133 -5 0 -7 -4 -4 -8 6 -10 -51 -72 -66
-72 -5 0 -7 -4 -4 -9 5 -8 -40 -26 -56 -23 -5 1 -8 -2 -8 -8 0 -5 -7 -6 -17
-3 -9 4 -14 2 -11 -3 7 -11 -92 -12 -109 -1 -8 5 -13 3 -13 -4 0 -8 -4 -8 -15
1 -8 7 -21 10 -29 7 -8 -3 -17 1 -20 9 -3 9 -10 13 -15 10 -5 -4 -15 0 -23 7
-7 8 -23 19 -36 26 -12 6 -22 18 -22 25 0 8 -7 17 -16 20 -8 3 -12 10 -9 16 3
5 2 10 -3 10 -8 0 -15 15 -20 40 0 3 -6 19 -13 35 -13 33 -20 255 -7 255 4 0
8 9 8 19 0 11 4 30 9 43 5 13 8 25 8 28 -1 6 39 54 67 81 62 59 183 80 289 49z"/>
<path d="M1307 2662 c-4 -6 -15 -8 -24 -5 -12 5 -15 2 -10 -10 3 -9 3 -17 -2
-17 -8 0 -5 -62 4 -87 2 -7 -1 -13 -8 -13 -8 0 -6 -4 3 -10 8 -5 10 -10 4 -10
-11 0 -10 -57 1 -87 2 -7 -1 -13 -8 -13 -8 0 -6 -4 3 -10 8 -5 10 -10 4 -10
-11 0 -10 -57 1 -87 2 -7 -1 -13 -8 -13 -8 0 -6 -4 3 -10 8 -5 10 -10 4 -10
-11 0 -10 -57 1 -87 2 -7 -1 -13 -8 -13 -8 0 -6 -4 3 -10 8 -5 10 -10 4 -10
-11 0 -10 -57 1 -87 2 -7 -1 -13 -8 -13 -8 0 -6 -4 3 -10 8 -5 10 -10 4 -10
-11 0 -10 -57 1 -87 2 -7 1 -13 -4 -13 -4 0 -6 -13 -3 -29 l4 -29 222 1 221 2
1 45 c0 25 -1 50 -3 55 -2 7 -54 10 -141 10 -75 -1 -144 1 -153 3 -13 3 -16
22 -16 121 l0 117 142 0 143 -1 10 27 c6 18 7 30 1 34 -6 3 -7 14 -4 24 3 10
0 20 -7 22 -7 3 -73 5 -146 4 -81 -1 -133 3 -134 9 -4 27 -6 163 -2 181 4 21
8 22 150 20 121 -1 148 2 160 15 8 9 11 19 7 23 -5 4 -8 22 -8 39 -1 20 -6 31
-13 30 -7 -2 -12 1 -12 6 0 10 -19 9 -37 -2 -8 -5 -13 -3 -13 4 0 8 -4 8 -13
1 -8 -7 -18 -7 -27 -2 -9 5 -19 5 -27 -2 -9 -7 -13 -7 -13 1 0 7 -5 9 -12 5
-16 -10 -58 -12 -58 -3 0 9 -21 6 -37 -4 -8 -5 -13 -3 -13 3 0 6 -5 8 -12 4
-16 -10 -58 -12 -58 -3 0 9 -20 6 -37 -4 -6 -4 -13 -2 -15 5 -3 9 -6 9 -11 0z"/>
<path d="M2510 2617 c-12 -27 -23 -57 -25 -67 -2 -10 -8 -26 -14 -36 -14 -26
-52 -137 -51 -148 1 -5 -2 -12 -7 -15 -4 -3 -17 -32 -27 -63 -11 -32 -23 -58
-27 -58 -5 0 -6 -7 -3 -15 4 -8 2 -15 -4 -15 -6 0 -9 -8 -8 -17 2 -10 -5 -33
-16 -51 -10 -18 -16 -37 -13 -43 4 -5 1 -9 -4 -9 -6 0 -11 -9 -11 -20 0 -11
-5 -20 -11 -20 -5 0 -7 -4 -4 -10 3 -5 -3 -28 -14 -51 -11 -23 -18 -46 -15
-50 3 -5 0 -9 -6 -9 -6 0 -8 -4 -5 -10 3 -5 2 -10 -3 -10 -5 0 -9 -6 -9 -13 0
-17 128 -20 140 -3 8 13 27 76 26 90 0 5 4 12 11 16 6 4 12 17 13 28 1 12 4
22 7 22 3 0 6 10 7 21 1 12 4 23 6 26 9 8 288 6 296 -3 5 -5 16 -31 26 -59 10
-27 22 -54 26 -59 4 -5 5 -15 2 -22 -3 -8 -1 -14 5 -14 5 0 12 -13 15 -29 6
-27 8 -28 69 -29 35 0 66 2 70 4 8 5 -13 74 -23 74 -4 0 -6 9 -4 20 2 11 -3
26 -11 34 -8 8 -13 19 -12 23 1 4 -4 19 -12 33 -7 14 -12 25 -11 25 1 0 -2 13
-8 28 -6 16 -11 34 -11 42 0 8 -5 17 -10 20 -6 4 -8 11 -5 16 4 5 1 9 -6 9 -7
0 -9 3 -6 7 4 3 2 12 -4 20 -6 7 -9 13 -5 13 4 0 0 13 -8 29 -9 16 -12 31 -9
35 4 3 2 6 -4 6 -9 0 -28 54 -24 73 0 4 -4 7 -10 7 -6 0 -9 7 -5 15 3 8 1 15
-4 15 -6 0 -9 3 -8 8 0 4 -2 15 -5 25 -4 9 -10 25 -14 35 -3 9 -5 20 -5 25 1
4 -2 7 -6 7 -4 0 -8 10 -9 22 -1 11 -7 24 -13 28 -7 4 -11 10 -10 14 3 14 -12
66 -22 72 -6 4 -39 8 -74 8 l-63 2 -21 -49z m97 -104 c-4 -3 -2 -12 3 -19 6
-6 10 -16 9 -20 -1 -5 1 -18 5 -29 16 -40 19 -50 22 -60 1 -5 15 -47 32 -92
16 -46 26 -84 23 -84 -3 -1 -52 -2 -108 -3 -89 -1 -103 0 -103 14 0 9 3 19 6
23 4 3 17 39 31 79 13 40 26 79 28 86 2 7 4 13 4 15 0 1 7 19 16 40 8 20 13
37 10 37 -4 0 -3 5 0 10 3 6 11 10 17 10 6 0 8 -3 5 -7z"/>
<path d="M3646 2663 c-2 -3 -10 -6 -18 -7 -57 -12 -126 -70 -144 -121 -25 -75
-1 -183 51 -230 42 -37 65 -55 73 -55 5 0 33 -12 63 -27 30 -15 56 -27 59 -28
22 -4 73 -40 86 -61 29 -44 26 -90 -9 -124 -17 -16 -38 -31 -46 -31 -68 -5
-119 -4 -133 3 -11 6 -18 5 -18 -2 0 -6 -10 -4 -23 5 -13 8 -26 13 -29 10 -3
-3 -18 1 -34 10 -38 20 -54 19 -55 -2 -8 -97 -5 -113 23 -113 11 0 28 -5 39
-10 10 -6 45 -12 76 -13 32 -1 61 -6 65 -12 5 -7 8 -7 8 0 0 6 27 11 60 12 33
2 70 9 83 18 13 8 26 13 29 10 3 -3 17 6 31 19 15 14 27 22 27 18 0 -4 11 11
24 33 13 22 22 43 20 47 -3 5 -1 8 4 8 5 0 9 34 9 75 0 41 -4 72 -9 69 -4 -3
-8 2 -8 10 0 28 -65 85 -137 120 -39 20 -77 37 -85 38 -7 2 -15 5 -18 8 -3 3
-22 14 -42 25 -62 32 -83 104 -45 149 22 25 74 51 92 47 6 -2 24 -5 40 -6 17
-2 44 -6 60 -10 17 -4 36 -7 43 -7 6 -1 12 -5 12 -9 0 -5 7 -6 15 -3 9 4 15 1
15 -7 0 -25 27 14 43 64 15 44 15 47 -2 47 -10 0 -21 3 -25 7 -3 4 -12 8 -19
9 -7 1 -34 7 -61 14 -46 10 -180 12 -190 3z"/>
<path d="M4593 2658 c-29 -8 -31 -10 -23 -38 5 -17 5 -30 1 -30 -4 0 -4 -27
-1 -60 3 -33 3 -60 -1 -60 -4 0 -4 -13 1 -30 5 -17 5 -30 0 -30 -5 0 -5 -13 0
-30 5 -19 5 -30 -1 -30 -6 0 -5 -8 1 -20 6 -12 7 -20 1 -20 -6 0 -6 -11 -1
-30 5 -17 5 -30 0 -30 -5 0 -5 -13 0 -30 5 -19 5 -30 -1 -30 -6 0 -5 -8 1 -20
6 -12 7 -20 1 -20 -6 0 -6 -11 -1 -30 5 -17 5 -30 0 -30 -5 0 -5 -13 0 -30 5
-16 5 -30 1 -30 -9 0 -7 -42 3 -58 4 -7 2 -12 -6 -12 -9 0 -9 -3 2 -10 8 -5
10 -10 5 -10 -6 0 -9 -14 -7 -33 l4 -34 218 -1 c186 0 219 2 224 15 3 8 4 19
1 24 -3 5 -1 18 6 30 8 16 8 20 -1 14 -7 -4 -10 -1 -8 11 3 17 -8 19 -147 20
-82 1 -153 2 -157 3 -3 0 -5 54 -5 119 l2 117 115 2 c191 2 183 1 176 18 -3 8
-1 15 5 15 6 0 7 5 3 12 -4 6 -8 23 -9 37 l-1 26 -142 0 c-164 0 -152 -8 -151
105 1 117 -12 107 151 108 79 0 148 1 155 1 7 1 11 20 9 54 -1 35 -5 51 -14
50 -6 -2 -12 1 -12 5 0 9 -42 8 -58 -2 -7 -4 -12 -2 -12 4 0 6 -5 8 -12 4 -16
-10 -58 -12 -58 -3 0 9 -21 6 -37 -4 -8 -5 -13 -3 -13 3 0 6 -5 8 -12 4 -16
-10 -58 -12 -58 -3 0 9 -21 6 -37 -4 -8 -5 -13 -3 -13 4 0 8 -4 8 -12 1 -17
-14 -30 -16 -37 -5 -3 6 -19 6 -38 1z"/>
<path d="M5574 2658 c-2 -3 -12 -4 -22 -2 -13 4 -17 -1 -17 -23 l-1 -28 128 0
c108 1 128 -2 129 -15 6 -127 2 -681 -6 -684 -5 -3 -5 -5 2 -5 7 -1 10 -7 7
-14 -3 -8 6 -14 27 -15 l31 -2 -4 60 c-1 33 0 60 3 60 5 0 2 90 -5 138 -2 12
0 22 4 22 6 0 4 86 -4 138 -2 12 0 22 4 22 6 0 4 86 -4 138 -2 12 0 22 3 22 4
0 4 26 1 59 -3 34 -1 62 5 67 11 10 195 12 210 2 13 -8 40 13 40 32 0 19 -26
40 -39 32 -14 -8 -56 -9 -56 -1 0 9 -21 6 -37 -4 -8 -5 -13 -3 -13 3 0 6 -5 8
-12 3 -19 -11 -38 -12 -38 -2 0 6 -8 5 -20 -1 -14 -8 -20 -8 -20 0 0 8 -6 8
-20 0 -14 -8 -20 -8 -20 0 0 8 -6 8 -20 0 -14 -8 -20 -8 -20 0 0 8 -6 8 -20 0
-14 -8 -20 -8 -20 0 0 8 -6 8 -20 0 -14 -8 -20 -8 -20 0 0 8 -6 8 -20 0 -14
-8 -20 -8 -20 0 0 8 -6 8 -20 0 -11 -6 -20 -7 -20 -3 0 10 -50 11 -56 1z"/>
<path d="M7964 2633 c1 -21 -3 -41 -9 -45 -6 -5 -5 -8 2 -8 9 0 10 -7 4 -23
-5 -13 -6 -30 -1 -37 4 -7 4 -25 0 -41 -5 -15 -6 -30 -3 -33 11 -10 9 -71 -1
-78 -8 -6 -8 -10 -1 -15 14 -10 13 -76 0 -85 -6 -5 -5 -8 4 -8 11 0 11 -3 1
-15 -7 -9 -8 -15 -2 -15 11 0 11 -18 -1 -37 -4 -6 -3 -14 3 -18 7 -4 7 -12 0
-24 -5 -10 -7 -21 -3 -24 10 -11 9 -72 -1 -79 -8 -6 -8 -10 -1 -15 13 -10 14
-83 2 -83 -5 0 -5 -6 1 -13 7 -8 7 -18 2 -27 -11 -18 6 -40 30 -40 9 0 22 11
28 25 8 17 8 25 1 25 -6 0 -7 6 -2 13 11 17 13 37 3 37 -8 0 -5 43 5 59 3 6 1
11 -5 11 -6 0 -8 5 -3 13 11 17 13 37 3 37 -8 0 -5 48 4 57 3 3 1 14 -4 23
-12 23 4 27 87 25 39 -2 60 1 57 7 -4 6 3 5 14 -1 12 -6 23 -7 26 -3 3 5 15 8
28 7 13 -1 28 2 35 7 7 5 17 7 23 3 5 -3 10 -1 10 4 0 6 6 11 14 11 7 0 25 11
40 25 14 13 26 21 26 18 0 -4 6 2 14 12 8 11 12 23 10 27 -3 5 0 8 5 8 6 0 11
9 11 19 0 11 4 22 9 25 12 8 4 160 -9 164 -5 2 -10 10 -10 17 0 17 -43 65 -59
65 -6 0 -11 5 -11 10 0 6 -9 10 -20 10 -11 0 -20 4 -20 8 0 8 -45 15 -87 14
-13 0 -23 4 -23 9 0 6 -9 5 -20 -1 -13 -7 -20 -7 -20 -1 0 7 -8 7 -23 2 -13
-5 -30 -5 -37 -1 -8 5 -19 6 -24 3 -16 -10 -56 -10 -56 0 0 5 -6 5 -13 -2 -9
-7 -17 -7 -24 0 -6 6 -9 -3 -9 -28z m231 -33 c3 -4 16 -5 30 -2 14 2 32 -1 40
-8 9 -7 18 -10 21 -7 8 8 64 -44 64 -60 0 -7 4 -13 8 -13 5 0 9 -6 10 -12 11
-96 2 -153 -28 -179 -11 -9 -16 -19 -13 -23 4 -3 -1 -6 -10 -6 -9 0 -17 -5
-17 -12 0 -6 -3 -8 -6 -5 -4 3 -16 1 -28 -6 -25 -14 -39 -16 -136 -18 -102 -1
-112 0 -106 10 4 5 1 11 -6 13 -7 3 -8 9 -3 19 12 19 15 39 5 39 -8 0 -5 43 5
59 3 6 1 11 -5 11 -6 0 -8 5 -5 11 12 18 13 59 1 59 -6 0 -4 5 4 10 8 5 10 10
4 10 -11 0 -11 46 0 57 2 3 1 16 -4 28 -6 16 -5 25 3 28 20 7 167 4 172 -3z"/>
<path d="M2162 1218 c-6 -9 -10 -145 -10 -388 -1 -206 -1 -381 -1 -387 -1 -10
-37 -13 -145 -13 -132 0 -167 6 -149 24 12 12 12 36 0 36 -8 0 -8 3 -2 8 14
10 17 32 5 32 -6 0 -6 9 0 25 6 15 6 25 0 25 -5 0 -5 12 0 28 4 16 4 36 -2 45
-5 10 -5 17 -1 17 9 0 9 98 0 107 -3 3 -2 16 3 29 7 17 6 24 -2 24 -9 0 -9 3
-1 11 7 7 8 21 3 40 -5 17 -5 29 1 29 11 0 11 11 0 28 -5 8 -34 15 -75 17 -36
2 -70 7 -76 10 -5 3 -11 1 -15 -5 -4 -6 -12 -7 -18 -3 -18 11 -61 12 -74 1 -9
-7 -13 -7 -13 -1 0 9 -68 9 -130 0 -36 -5 -100 -30 -100 -38 0 -4 -9 -11 -20
-14 -11 -4 -18 -11 -15 -16 4 -5 1 -9 -5 -9 -6 0 -15 -12 -21 -27 -5 -16 -12
-35 -16 -43 -10 -26 -16 -63 -17 -117 -1 -29 -5 -53 -9 -53 -5 0 -5 -5 -1 -11
4 -6 8 -32 10 -58 6 -91 38 -169 79 -191 14 -7 25 -17 25 -22 0 -5 5 -6 10 -3
6 3 10 1 10 -5 0 -6 5 -8 10 -5 6 3 10 2 10 -2 0 -9 37 -15 93 -16 15 -1 27
-5 27 -10 0 -5 6 -5 13 1 8 7 18 7 27 2 8 -5 21 -5 31 1 12 6 20 5 24 -1 5 -8
11 -8 20 0 10 8 15 8 20 0 5 -8 11 -8 21 1 11 9 14 9 14 -1 0 -10 3 -10 14 -1
9 8 16 8 20 2 5 -7 15 -7 32 -1 14 6 23 6 20 2 -5 -9 63 -6 72 3 3 2 11 0 19
-6 7 -6 13 -7 13 -2 0 11 29 11 48 -1 7 -4 12 -2 12 4 0 6 5 8 11 5 17 -11 59
-13 59 -3 0 5 9 4 20 -2 11 -6 20 -7 20 -2 0 10 36 9 46 -1 4 -4 13 -2 20 4 8
7 14 7 19 -1 5 -8 11 -8 21 1 11 9 14 9 14 -1 0 -10 3 -10 14 -1 10 8 16 9 21
1 4 -6 12 -7 24 0 11 5 21 6 27 0 6 -6 10 160 10 444 l-1 454 -33 4 c-18 2
-36 0 -38 -4 -3 -5 -12 -4 -19 2 -9 7 -15 7 -23 -2z m-479 -369 c51 -2 58 -5
54 -21 -3 -10 -1 -18 5 -18 5 0 6 -6 2 -12 -10 -15 -13 -48 -5 -48 3 0 4 -45
1 -99 -3 -55 -2 -116 1 -135 3 -20 2 -36 -3 -36 -5 0 -6 -5 -3 -10 8 -13 -4
-52 -14 -46 -4 3 -51 6 -105 7 -53 1 -114 7 -134 14 -41 14 -85 69 -91 113 -8
55 -2 183 8 196 6 7 8 16 4 19 -3 4 -1 7 5 7 7 0 12 6 12 13 0 29 106 65 175
60 17 -1 56 -3 88 -4z"/>
<path d="M5390 1220 c-13 -8 -15 -69 -15 -397 l-1 -388 -131 -3 -131 -3 -4 62
c-1 33 1 63 6 66 4 3 2 10 -5 15 -10 6 -10 11 -3 14 7 3 9 18 4 44 -4 24 -3
43 3 49 7 7 7 11 1 11 -6 0 -9 18 -8 40 1 22 -1 40 -5 40 -4 0 -8 15 -8 33 -1
54 -8 97 -14 97 -4 0 -7 6 -6 13 1 39 -2 42 -53 39 l-50 -4 2 -84 c2 -46 5
-84 8 -84 3 0 5 -78 5 -173 l0 -172 -83 -1 c-45 -1 -82 2 -82 6 0 4 -9 10 -20
13 -16 4 -19 12 -16 44 3 21 5 40 6 43 1 5 2 292 1 333 -1 14 -10 17 -61 16
l-60 -2 0 -31 c-1 -17 -2 -103 -3 -190 -1 -113 -5 -160 -14 -163 -7 -3 -10
-10 -7 -18 11 -26 -47 -53 -117 -53 l-66 0 1 226 1 227 -59 3 c-32 2 -64 -2
-69 -7 -8 -8 -7 -11 2 -11 7 0 9 -5 5 -11 -11 -19 -11 -89 0 -89 6 0 4 -5 -4
-10 -11 -7 -11 -10 -2 -10 8 0 10 -5 5 -12 -11 -18 -10 -42 2 -50 7 -5 7 -8 0
-8 -11 0 -13 -126 -2 -136 4 -4 1 -14 -6 -22 -10 -13 -9 -14 2 -7 11 6 12 5 5
-6 -13 -21 -14 -39 -2 -39 6 0 5 -6 -2 -15 -7 -8 -9 -16 -4 -17 20 -4 -205
-13 -257 -10 l-57 4 0 82 c1 46 -2 88 -6 95 -4 6 -3 11 3 11 5 0 8 10 5 23 -3
12 -8 38 -10 57 -3 19 -9 44 -14 55 -16 38 -23 60 -22 68 1 4 -2 7 -7 7 -5 0
-12 9 -16 19 -8 28 -82 101 -101 101 -8 0 -13 4 -10 9 3 5 -3 11 -14 14 -11 3
-23 6 -25 7 -3 0 -20 7 -40 16 -19 8 -35 11 -35 7 0 -5 -5 -1 -10 7 -7 11 -10
11 -10 2 0 -8 -5 -10 -12 -5 -32 20 -159 19 -258 -2 -14 -3 -36 -7 -50 -10
-14 -3 -36 -7 -50 -11 -14 -3 -30 -6 -37 -6 -11 -1 -8 -41 4 -61 3 -6 1 -7 -5
-3 -8 5 -10 1 -5 -11 9 -24 25 -34 38 -24 12 10 103 22 214 27 125 6 198 -17
270 -84 23 -21 38 -41 34 -45 -3 -4 -2 -7 4 -7 23 0 50 -144 40 -212 -2 -16
-1 -28 3 -28 10 0 8 -20 -3 -37 -5 -8 -3 -13 3 -13 7 0 8 -6 1 -19 -6 -10 -7
-21 -4 -25 3 -3 -30 -6 -74 -6 -44 0 -82 3 -86 6 -3 3 -2 17 3 30 5 13 6 24 2
24 -4 0 -8 20 -8 43 -2 49 -22 94 -59 131 -14 14 -25 30 -25 36 0 6 -4 8 -10
5 -5 -3 -10 -1 -10 4 0 6 -3 10 -7 9 -5 -1 -21 5 -38 12 -41 18 -154 17 -166
-1 -5 -8 -9 -10 -9 -6 0 13 -59 -25 -89 -58 -26 -29 -67 -115 -55 -115 4 0 1
-6 -5 -14 -7 -8 -8 -17 -4 -19 5 -3 7 -24 5 -46 l-4 -41 -147 0 -146 0 1 259
c0 143 -4 258 -8 255 -4 -3 -8 0 -8 7 0 7 -3 10 -6 6 -3 -3 -17 -2 -30 3 -16
7 -24 6 -24 -1 0 -8 -4 -8 -14 0 -13 11 -207 18 -261 9 -34 -5 -115 -49 -109
-59 3 -5 1 -9 -3 -9 -14 0 -39 -50 -53 -105 -14 -51 -22 -265 -11 -265 6 0 11
-26 14 -67 0 -7 5 -13 10 -13 5 0 7 -7 3 -15 -3 -8 -1 -15 4 -15 6 0 10 -4 10
-10 0 -31 93 -88 141 -85 16 1 29 -3 29 -8 0 -5 6 -4 14 2 9 8 16 8 20 2 4 -6
18 -6 35 -1 19 5 33 4 40 -3 8 -8 11 -8 11 1 0 9 5 10 19 2 14 -7 22 -7 27 1
4 8 10 5 17 -7 13 -22 14 -65 3 -83 -4 -7 -5 -15 -2 -18 15 -15 -48 -98 -66
-87 -5 3 -13 2 -20 -2 -16 -10 -98 -11 -98 -2 0 4 -18 6 -40 5 -22 -2 -40 0
-40 3 0 3 -9 6 -21 6 -18 0 -20 -5 -17 -38 2 -22 -1 -38 -7 -38 -5 0 -4 -4 3
-9 8 -4 13 -12 13 -17 -1 -9 1 -10 89 -19 54 -6 120 -8 130 -5 3 1 14 3 25 5
48 9 57 13 83 37 53 51 75 99 87 188 2 14 4 26 5 28 2 2 4 14 9 53 0 5 6 7 12
3 15 -9 147 -9 156 0 3 3 12 1 20 -5 7 -6 13 -7 13 -2 0 11 29 11 47 0 6 -4
14 -3 18 3 4 6 12 7 18 3 17 -10 47 -11 47 -1 0 5 9 4 20 -2 11 -6 20 -7 20
-2 0 10 36 9 46 -1 4 -4 13 -2 20 4 8 7 14 7 19 -1 5 -8 11 -8 21 1 11 9 14 9
14 -1 0 -10 3 -10 14 -1 9 8 16 8 20 2 4 -6 15 -7 30 -1 15 5 27 5 35 -3 8 -8
11 -8 11 1 0 9 5 10 17 3 11 -6 24 -6 35 0 11 6 18 6 18 0 0 -5 14 -6 34 -1
22 5 39 3 45 -3 8 -8 11 -7 11 1 0 9 5 10 18 3 11 -6 24 -6 35 0 10 6 17 6 17
1 0 -6 14 -7 34 -2 22 5 39 3 45 -3 8 -8 11 -7 11 1 0 9 5 10 18 3 11 -6 24
-6 35 0 10 6 17 6 17 1 0 -6 14 -7 34 -2 22 5 39 3 45 -3 8 -8 11 -7 11 2 0 7
5 9 11 5 16 -10 58 -11 91 -2 15 3 30 2 34 -3 4 -6 11 -6 19 1 10 8 15 8 20 0
5 -8 11 -8 21 1 11 9 14 9 14 -1 0 -10 3 -10 14 -1 9 8 16 8 20 2 5 -7 15 -7
32 -1 14 6 23 6 20 2 -5 -9 63 -6 72 3 3 2 11 0 19 -6 7 -6 13 -7 13 -2 0 11
29 11 47 0 6 -4 14 -3 18 3 4 6 12 7 18 3 18 -11 47 -11 47 0 0 5 6 4 14 -2 8
-7 17 -8 20 -3 3 5 17 8 31 7 14 -2 25 1 25 6 0 6 4 8 8 5 5 -3 16 4 25 14 16
19 17 19 59 -4 24 -12 55 -22 71 -21 15 0 27 -3 27 -8 0 -5 6 -4 14 2 10 9 16
9 21 1 5 -8 10 -8 20 0 9 7 15 8 19 1 4 -6 15 -7 30 -1 15 5 27 5 35 -3 8 -8
11 -8 11 1 0 9 5 10 18 3 11 -6 24 -6 35 0 10 6 17 6 17 1 0 -6 14 -7 34 -2
22 5 39 3 45 -3 8 -8 11 -7 11 1 0 9 5 10 18 3 11 -6 24 -6 35 0 10 6 17 6 17
1 0 -6 14 -7 34 -2 22 5 39 3 45 -3 8 -8 11 -7 11 1 0 9 5 10 18 3 11 -6 24
-6 35 0 10 6 17 6 17 1 0 -6 14 -7 35 -2 20 4 38 4 41 -1 3 -5 9 -7 14 -4 4 3
7 206 7 452 l-2 448 -36 1 c-19 0 -40 3 -45 7 -6 3 -16 2 -24 -3z m-2572 -360
c1 -1 8 -3 14 -4 10 -1 13 -49 14 -201 0 -110 -2 -206 -4 -213 -3 -9 -28 -12
-91 -11 -92 2 -121 9 -150 36 -20 19 -43 87 -33 97 3 3 1 6 -4 6 -5 0 -9 16
-9 35 0 19 3 35 8 35 4 0 5 6 0 13 -10 16 -10 35 0 72 4 17 10 39 12 49 6 27
55 76 77 76 10 0 18 4 18 8 0 7 141 9 148 2z m725 -236 c22 -7 64 -44 50 -44
-4 0 -2 -4 6 -9 9 -6 15 -31 16 -74 l3 -66 -117 -3 -117 -3 1 33 c0 17 -4 32
-10 32 -7 0 -7 3 0 8 6 4 10 18 10 32 -1 32 28 70 68 91 31 17 45 17 90 3z"/>
<path d="M5745 1220 l-30 -5 0 -445 c1 -342 4 -444 13 -443 7 2 12 -2 12 -9 0
-9 3 -9 12 0 8 8 15 8 24 1 8 -7 14 -7 19 1 4 7 11 8 18 1 8 -6 16 -4 25 5 7
8 9 14 5 14 -4 0 -9 16 -9 35 -1 21 3 32 9 28 6 -4 7 -1 2 8 -12 18 -14 69 -3
75 5 3 5 11 1 17 -10 17 -10 127 0 127 4 0 5 6 0 13 -10 16 -11 147 -1 147 4
0 8 5 8 11 0 5 -3 8 -8 5 -9 -6 -9 65 0 80 4 6 4 14 0 18 -10 11 -10 126 1
126 4 0 5 5 1 11 -11 18 -13 69 -2 69 5 0 6 6 1 13 -4 6 -8 30 -8 52 0 36 -3
40 -30 45 -16 3 -43 3 -60 0z"/>
<path d="M1490 1192 c-33 -5 -35 -11 -34 -73 0 -41 4 -53 17 -55 9 -1 17 3 17
9 0 8 3 8 8 2 7 -10 61 -15 63 -5 1 3 3 30 4 62 2 54 1 56 -24 60 -14 2 -37 2
-51 0z"/>
<path d="M1629 1190 c-7 -31 -4 -120 5 -121 49 -5 89 -2 94 6 9 14 10 91 2
105 -7 11 -99 20 -101 10z"/>
<path d="M6503 1152 c-31 -3 -33 -6 -33 -43 0 -27 4 -39 15 -40 8 -1 21 -2 28
-3 19 -3 48 14 41 25 -3 5 0 17 8 26 11 14 11 16 -1 8 -11 -6 -13 -4 -8 8 7
18 -7 24 -50 19z"/>
<path d="M8137 1148 c2 -5 0 -8 -5 -8 -13 0 -7 -61 6 -69 6 -4 24 -6 39 -6 25
2 28 5 31 43 2 23 0 42 -5 43 -44 4 -70 3 -66 -3z"/>
<path d="M6613 1110 c-1 -22 1 -40 5 -41 4 0 22 -2 40 -3 17 -2 32 -1 33 3 0
3 2 23 4 44 l2 37 -41 0 c-41 0 -41 0 -43 -40z"/>
<path d="M8271 1107 c3 -43 3 -43 37 -40 39 3 39 3 42 23 7 51 1 60 -40 60
l-41 0 2 -43z"/>
<path d="M6490 960 c0 -3 -12 -6 -27 -7 -41 -2 -59 -7 -75 -21 -8 -6 -17 -9
-21 -6 -3 3 -8 -4 -12 -15 -3 -12 -10 -19 -15 -16 -5 3 -12 -6 -16 -20 -3 -14
-9 -25 -13 -25 -4 0 -8 -7 -9 -15 -1 -8 -3 -22 -4 -30 -1 -8 -4 -15 -8 -15 -4
0 -6 -11 -5 -25 2 -14 0 -25 -5 -25 -11 0 -7 -33 5 -42 6 -5 6 -8 -2 -8 -8 0
-10 -23 -8 -77 2 -43 4 -78 5 -78 2 0 9 -36 12 -62 1 -13 6 -23 10 -23 4 0 8
-5 8 -11 0 -41 100 -110 163 -113 15 0 27 -5 27 -10 0 -4 6 -3 14 3 9 8 16 8
20 2 4 -7 15 -7 31 -1 16 6 27 6 31 -1 4 -7 10 -6 19 1 9 8 15 8 20 0 4 -7 12
-7 26 0 12 7 19 7 19 1 0 -6 11 -6 30 -1 18 5 32 5 35 -1 4 -5 14 -5 26 1 14
8 19 7 19 -1 0 -8 5 -7 17 2 14 12 15 12 9 1 -7 -11 -4 -12 12 -3 14 8 23 8
27 1 5 -8 11 -8 20 0 9 8 15 8 20 0 4 -7 12 -7 26 0 12 7 19 7 19 1 0 -7 9 -7
25 -1 16 6 26 6 31 -1 3 -6 11 -6 17 -1 14 10 27 10 45 -1 7 -5 12 -4 12 3 0
7 6 8 18 1 13 -7 22 -7 29 0 8 8 13 7 18 -1 5 -8 10 -8 20 0 9 7 15 8 19 1 4
-6 15 -7 30 -1 15 5 27 5 35 -3 6 -6 11 -7 11 -1 0 5 11 9 25 9 14 0 25 -4 25
-9 0 -5 6 -3 14 3 9 8 16 8 20 2 4 -7 15 -7 31 -1 16 6 27 6 31 -1 4 -7 10 -6
19 1 9 8 15 8 20 0 4 -7 12 -7 26 0 11 6 19 7 19 1 0 -5 14 -6 34 -1 22 5 39
3 45 -3 8 -8 11 -7 11 1 0 10 5 10 20 2 14 -8 20 -8 20 0 0 7 6 8 18 1 20 -11
56 4 47 20 -4 5 3 9 14 9 12 0 21 -4 21 -8 0 -13 77 -30 94 -20 10 6 16 5 16
-1 0 -6 11 -6 30 -1 19 5 30 5 30 -1 0 -6 7 -6 19 1 25 13 34 13 25 -1 -4 -8
0 -8 15 0 11 7 21 8 21 2 0 -5 14 -6 34 -1 22 5 39 3 45 -3 6 -6 11 -7 11 -1
0 5 11 9 25 9 14 0 25 -4 25 -9 0 -5 6 -3 14 3 10 9 16 9 21 1 5 -8 10 -8 20
0 9 8 15 8 20 0 4 -7 12 -7 26 0 12 7 19 7 19 1 0 -7 9 -7 25 -1 15 6 26 6 30
-1 4 -5 12 -6 18 -2 17 11 30 11 44 1 6 -5 14 -5 18 2 3 6 12 7 18 3 17 -10
47 -11 47 -1 0 5 5 6 10 3 7 -4 10 101 10 307 l0 313 -81 2 c-45 1 -92 4 -105
7 -13 4 -24 3 -24 -1 0 -5 -22 -8 -50 -7 -27 1 -50 -3 -50 -8 0 -6 -7 -8 -15
-4 -8 3 -15 1 -15 -5 0 -6 -4 -7 -10 -4 -5 3 -10 1 -10 -5 0 -6 -5 -8 -10 -5
-6 3 -13 -1 -16 -9 -3 -9 -9 -14 -14 -11 -9 6 -47 -69 -56 -110 -10 -50 -12
-299 -2 -312 6 -7 5 -14 -2 -18 -7 -4 -3 -17 11 -36 25 -36 19 -39 -79 -36
-39 1 -72 -2 -72 -6 0 -5 -5 -5 -10 -2 -6 4 -33 8 -61 9 -28 2 -54 8 -58 13
-3 6 -13 12 -21 15 -18 6 -23 96 -6 117 6 9 7 12 1 9 -7 -5 -12 25 -13 85 -1
51 -3 99 -5 107 -3 8 -8 34 -12 58 -4 23 -10 42 -14 42 -3 0 -12 13 -18 28
-11 23 -94 88 -105 82 -2 -1 -16 4 -33 10 -43 17 -95 20 -95 6 0 -7 -3 -8 -8
-1 -4 6 -16 11 -27 11 -11 0 -23 -5 -27 -11 -5 -6 -8 -5 -8 3 0 7 -5 10 -11 6
-6 -3 -27 -9 -47 -11 -72 -10 -80 -17 -88 -80 -4 -32 -9 -71 -10 -88 -1 -16
-3 -30 -4 -30 -7 0 -3 -86 5 -89 6 -3 6 -5 0 -5 -14 -1 -6 -223 10 -268 3 -8
-29 -11 -116 -10 -65 1 -119 -2 -119 -6 0 -5 -5 -5 -12 -1 -6 4 -33 6 -60 5
-33 -1 -48 2 -49 11 -5 66 -2 251 4 255 4 2 4 9 1 15 -10 15 -11 249 -1 255 4
2 0 12 -9 21 -11 11 -36 17 -69 18 -29 1 -58 4 -64 8 -6 4 -11 3 -11 -2 0 -5
-10 -8 -22 -6 -13 1 -23 3 -23 4 0 1 -30 3 -67 4 -38 1 -68 -1 -68 -4z m185
-64 c39 -3 71 -5 72 -5 0 -1 0 -30 0 -66 -1 -38 2 -65 8 -65 6 0 6 -3 0 -8
-14 -9 -13 -105 0 -114 7 -5 6 -8 0 -8 -14 0 -13 -110 0 -110 7 0 7 -3 0 -8
-6 -4 -10 -34 -10 -67 l0 -60 -135 1 c-129 0 -137 1 -177 27 -37 23 -63 54
-69 80 -1 4 -2 8 -4 10 -14 18 -20 191 -7 199 9 6 9 8 -1 8 -10 0 -9 7 1 33 8
17 12 38 10 45 -3 6 0 12 7 12 6 0 9 3 6 8 -5 8 10 29 42 56 25 22 123 46 162
40 14 -2 57 -6 95 -8z m690 3 c3 7 14 10 23 7 10 -3 32 -8 50 -11 37 -6 76
-28 107 -59 26 -26 53 -93 50 -123 -1 -13 1 -23 4 -23 10 0 7 -105 -4 -112 -7
-5 -7 -8 0 -8 12 0 14 -44 3 -56 -4 -4 -4 -12 0 -18 11 -18 9 -105 -4 -110 -6
-2 -85 -5 -176 -5 l-166 -1 -7 28 c-4 15 -8 43 -10 62 -2 19 -4 40 -5 45 -1 6
-2 12 -1 15 1 3 3 70 5 150 5 174 9 206 24 203 7 -2 12 1 12 6 0 12 73 19 81
7 4 -4 10 -3 14 3z m1002 -14 c7 -2 10 -24 9 -59 -2 -35 2 -56 8 -56 7 0 8 -3
1 -8 -15 -11 -17 -32 -3 -32 9 0 9 -3 0 -12 -7 -7 -8 -17 -1 -30 5 -10 6 -18
1 -18 -10 0 -8 -92 2 -109 4 -6 3 -11 -2 -11 -13 0 -10 -63 3 -72 6 -5 6 -8
-1 -8 -6 0 -10 -18 -9 -45 l2 -45 -71 1 c-39 0 -75 0 -81 -1 -5 -1 -14 -1 -20
0 -5 1 -36 2 -68 1 -36 -1 -57 2 -53 8 3 5 1 11 -6 13 -12 4 -14 10 -24 68 -4
19 -12 38 -18 42 -8 5 -7 8 2 8 8 0 10 5 6 12 -10 16 -9 128 1 203 5 33 8 64
6 68 -1 5 3 6 9 2 5 -3 10 -2 10 3 0 21 45 58 87 72 41 14 175 18 210 5z"/>
</g>
</svg>
